<?xml version="1.0" standalone="no"?>
<!DOCTYPE svg PUBLIC "-//W3C//DTD SVG 20010904//EN"
 "http://www.w3.org/TR/2001/REC-SVG-20010904/DTD/svg10.dtd">
<svg version="1.0" xmlns="http://www.w3.org/2000/svg"
 width="512.000000pt" height="512.000000pt" viewBox="0 0 512.000000 512.000000"
 preserveAspectRatio="xMidYMid meet">

<g transform="translate(0.000000,512.000000) scale(0.100000,-0.100000)"
fill="#000000" stroke="none">
<path d="M733 5105 c-284 -51 -517 -226 -639 -480 -68 -140 -87 -225 -87 -385
0 -160 19 -245 86 -385 110 -227 321 -399 572 -467 114 -30 317 -30 430 1 314
84 552 322 636 636 31 114 31 316 0 430 -49 184 -161 358 -302 469 -201 159
-455 225 -696 181z m362 -179 c113 -36 198 -89 290 -181 91 -91 144 -175 182
-290 39 -117 39 -313 0 -430 -38 -115 -91 -199 -182 -290 -91 -91 -175 -144
-290 -182 -71 -23 -96 -26 -215 -26 -119 0 -144 3 -215 26 -114 38 -198 90
-290 182 -91 91 -144 175 -182 290 -23 71 -26 96 -26 215 0 119 3 144 26 215
38 115 91 199 182 290 112 112 235 179 379 205 89 16 251 5 341 -24z"/>
<path d="M1028 4720 c-9 -6 -76 -93 -148 -195 -91 -127 -136 -183 -144 -177
-116 92 -153 110 -191 96 -20 -8 -221 -273 -235 -309 -6 -16 -6 -34 0 -50 9
-25 467 -376 507 -389 11 -4 32 -2 45 3 36 14 548 733 548 770 0 18 -11 38
-32 57 -34 32 -229 173 -266 193 -25 13 -61 14 -84 1z m125 -225 c31 -22 57
-44 57 -49 0 -5 -88 -132 -196 -283 -138 -194 -199 -271 -207 -265 -7 5 -75
56 -152 112 -77 57 -144 106 -149 111 -9 8 72 128 87 129 4 0 38 -22 74 -50
66 -50 104 -61 141 -41 9 5 76 93 147 195 72 102 132 184 135 183 3 -1 31 -20
63 -42z"/>
<path d="M4146 4319 c-121 -42 -225 -132 -279 -242 l-28 -57 -72 0 c-186 0
-325 -97 -378 -264 -31 -96 -32 -254 -1 -338 28 -78 74 -143 132 -184 l48 -35
-23 -42 c-38 -69 -44 -102 -69 -351 -14 -131 -27 -240 -29 -242 -3 -3 -16 14
-30 38 -14 24 -44 64 -67 90 l-42 48 21 62 c35 110 44 181 39 321 -5 109 -10
144 -31 201 -81 219 -286 361 -593 410 -46 7 -87 15 -89 18 -3 3 2 24 10 48
19 54 19 113 0 149 -34 66 -113 104 -178 84 -30 -9 -35 -6 -88 43 -120 113
-233 94 -298 -51 -28 -61 -30 -63 -75 -69 -81 -12 -136 -77 -136 -160 0 -36 8
-57 45 -112 25 -36 45 -70 45 -74 0 -5 -20 -20 -44 -34 -58 -34 -198 -138
-250 -186 l-42 -39 -50 16 c-34 11 -88 16 -174 16 -105 1 -143 -4 -235 -27
-280 -70 -458 -220 -467 -391 -2 -45 -8 -56 -54 -107 -57 -62 -124 -185 -124
-227 0 -14 -3 -36 -6 -48 -6 -23 -8 -23 -198 -23 -201 0 -221 -4 -245 -48 -13
-24 -48 -276 -65 -467 -23 -251 -30 -544 -17 -670 39 -365 183 -667 441 -925
255 -255 552 -398 915 -440 122 -14 2262 -14 2393 0 350 38 659 186 912 440
204 204 330 423 400 695 42 163 54 305 46 540 -11 309 -59 767 -88 829 -17 38
-50 46 -198 46 l-138 0 34 128 c30 108 34 140 32 215 l-3 88 40 10 c148 40
257 168 301 355 46 198 -29 364 -205 452 -42 21 -86 41 -99 44 -19 5 -22 13
-22 50 0 175 -148 362 -331 419 -83 26 -214 25 -293 -2z m293 -168 c112 -58
171 -163 171 -305 0 -98 13 -117 95 -137 28 -6 75 -24 105 -40 144 -72 175
-188 98 -370 -34 -78 -122 -148 -190 -149 -20 0 -35 11 -63 50 -89 121 -248
229 -390 265 -162 41 -372 3 -524 -95 -69 -45 -83 -44 -144 10 -47 41 -71 113
-70 210 0 99 16 153 59 200 50 55 106 71 238 69 125 -2 143 8 164 88 25 96
104 182 201 219 56 22 195 13 250 -15z m-2118 -225 c64 -60 118 -77 172 -57
26 10 27 10 21 -17 -4 -15 -12 -43 -19 -62 l-12 -35 -93 -7 c-59 -4 -125 -16
-177 -33 -46 -15 -85 -26 -87 -24 -1 2 -20 27 -40 54 l-38 50 48 7 c59 9 105
51 136 125 12 29 24 53 26 53 2 0 31 -24 63 -54z m556 -438 c30 -28 31 -83 1
-115 -46 -49 -128 -14 -128 56 0 71 76 107 127 59z m100 -124 c12 -19 11 -24
-5 -44 -34 -42 -86 5 -56 49 19 26 41 24 61 -5z m1224 -58 c129 -28 266 -123
338 -235 l31 -47 -26 -77 c-14 -42 -31 -77 -37 -77 -30 1 -827 147 -833 153
-12 12 29 90 70 135 68 75 181 131 302 151 71 12 82 12 155 -3z m-2619 -104
c50 -22 71 -43 101 -103 21 -42 26 -45 116 -76 94 -32 147 -65 185 -117 17
-23 21 -42 21 -111 0 -118 7 -124 145 -129 120 -3 181 -20 260 -70 l55 -35
-247 -1 -246 0 -32 31 c-26 26 -36 30 -63 25 -18 -3 -41 -17 -52 -31 -21 -25
-22 -25 -187 -25 l-166 0 -12 53 c-16 65 -34 103 -55 111 -36 13 -76 6 -102
-20 -22 -22 -24 -30 -18 -71 4 -25 9 -52 12 -59 4 -12 -45 -14 -296 -14 l-301
0 0 30 c0 47 35 106 111 186 l69 73 0 66 c0 38 6 78 14 94 20 38 86 96 143
125 61 31 201 74 278 86 88 13 217 5 267 -18z m2483 -428 c209 -36 382 -68
384 -70 2 -1 -12 -35 -29 -73 l-33 -71 -383 0 c-359 0 -384 1 -384 18 0 9 5
75 12 145 11 122 13 128 32 123 12 -2 192 -35 401 -72z m-968 -88 c35 -16 80
-48 109 -77 l48 -49 -292 0 c-161 0 -292 4 -292 8 0 4 15 22 33 38 120 113
258 140 394 80z m-2654 -338 c-196 -186 -260 -471 -148 -664 15 -27 67 -87
115 -134 64 -63 90 -95 95 -120 17 -78 92 -195 145 -226 l28 -17 -6 -102 c-6
-130 14 -225 74 -344 70 -141 215 -280 348 -335 22 -9 60 -38 85 -64 59 -61
105 -95 183 -138 58 -31 61 -34 32 -34 -43 0 -184 27 -267 51 -477 140 -842
545 -944 1047 -33 161 -22 616 23 972 22 180 2 160 159 160 l134 0 -56 -52z
m906 15 c6 -20 9 -38 7 -40 -2 -2 -32 4 -67 13 -162 42 -309 -16 -399 -156
l-32 -50 -55 46 c-83 67 -147 124 -142 127 2 1 22 11 44 22 22 11 46 32 53 48
l13 27 284 0 284 0 10 -37z m294 -73 c-36 -60 -69 -110 -72 -110 -4 0 -18 44
-30 98 -13 53 -26 103 -28 110 -4 9 19 12 95 12 l101 0 -66 -110z m762 90 c-3
-10 -28 -103 -56 -206 -27 -104 -75 -270 -106 -371 l-57 -183 -56 0 c-101 1
-384 51 -415 74 -13 10 -12 19 11 76 42 103 37 183 -16 267 -13 20 -6 34 89
192 l103 171 255 0 c248 0 254 -1 248 -20z m989 -202 c32 -123 87 -312 122
-420 l64 -196 -26 -79 c-56 -164 -41 -335 42 -500 l46 -93 -34 -72 c-70 -145
-179 -259 -318 -332 -276 -145 -625 -92 -843 130 -45 45 -46 49 -39 88 4 23 7
86 6 141 -2 146 -41 275 -121 397 l-25 37 37 147 c20 80 64 232 97 338 32 105
84 286 114 401 31 116 57 216 59 223 3 9 89 12 383 12 l378 0 58 -222z m864
175 c-44 -64 -202 -222 -258 -260 -25 -17 -78 -47 -118 -67 l-74 -37 -99 17
-99 18 -17 55 c-15 54 -14 173 4 284 l6 37 344 0 344 0 -33 -47z m636 20 c32
-157 59 -509 60 -773 1 -191 -2 -252 -17 -325 -58 -284 -182 -518 -378 -714
-191 -191 -409 -309 -691 -374 -90 -20 -118 -21 -1003 -24 l-909 -4 69 35
c119 60 192 128 300 282 9 12 23 5 80 -41 84 -68 221 -137 330 -166 108 -30
326 -32 428 -5 90 24 170 57 245 100 l60 36 74 -35 c103 -49 194 -62 290 -42
42 8 102 28 134 44 79 38 174 134 211 211 l28 61 65 12 c137 24 282 106 375
211 59 67 121 193 140 283 44 209 -18 425 -163 574 -37 37 -78 75 -91 84 l-24
16 73 291 74 290 117 0 117 0 6 -27z m-3586 -213 c31 -13 71 -44 106 -81 31
-32 63 -59 72 -59 8 0 35 -20 59 -45 54 -53 57 -81 19 -170 -37 -86 -38 -97
-16 -157 58 -155 25 -255 -86 -266 -74 -7 -118 24 -214 150 -24 32 -35 37 -96
48 -38 6 -83 20 -100 30 -39 24 -57 82 -48 162 5 37 3 65 -5 80 -20 36 -14
148 11 205 52 123 163 161 298 103z m-484 -252 c4 -29 10 -105 15 -168 10
-138 28 -187 88 -239 41 -37 142 -81 183 -81 9 0 37 -26 62 -58 25 -32 66 -72
92 -89 l46 -31 -33 -21 c-67 -41 -161 -17 -262 68 l-50 42 -86 -6 c-109 -9
-147 5 -183 67 -14 25 -30 65 -35 89 -4 24 -24 70 -44 102 -39 63 -61 161 -51
218 21 107 83 156 200 158 l51 1 7 -52z m3632 -333 c21 -33 6 -72 -31 -81 -50
-13 -86 53 -49 90 24 24 61 20 80 -9z m-324 -82 c23 -20 24 -80 1 -105 -20
-23 -80 -24 -105 -1 -23 20 -24 80 -1 105 20 23 80 24 105 1z m-2154 -309 c39
-27 19 -94 -28 -94 -47 0 -67 67 -28 94 12 9 25 16 28 16 3 0 16 -7 28 -16z"/>
<path d="M2872 1817 c-140 -73 -266 -286 -303 -512 -48 -300 110 -505 391
-505 229 0 380 136 397 357 15 190 -72 434 -205 574 -100 107 -188 134 -280
86z m101 -294 c36 -41 25 -120 -18 -137 -82 -31 -153 68 -93 131 27 29 87 32
111 6z"/>
</g>
</svg>
