<svg xmlns="http://www.w3.org/2000/svg" width="28" height="28" fill="none" viewBox="0 0 28 28">
  <path fill="#AE1332" d="M22.166 8.167h-3.5V7a4.667 4.667 0 0 0-9.333 0v1.167h-3.5a1.167 1.167 0 0 0-1.167 1.166v12.834a3.5 3.5 0 0 0 3.5 3.5h11.667a3.5 3.5 0 0 0 3.5-3.5V9.333a1.167 1.167 0 0 0-1.166-1.166ZM11.666 7a2.333 2.333 0 1 1 4.667 0v1.167h-4.666V7ZM21 22.167a1.166 1.166 0 0 1-1.167 1.166H8.167A1.167 1.167 0 0 1 7 22.167V10.5h2.333v1.167a1.166 1.166 0 1 0 2.333 0V10.5h4.667v1.167a1.166 1.166 0 1 0 2.334 0V10.5H21v11.667Z"/>
</svg>
